<mxfile host="Electron" agent="Mozilla/5.0 (Macintosh; Intel Mac OS X 10_15_7) AppleWebKit/537.36 (KHTML, like Gecko) draw.io/26.0.16 Chrome/132.0.6834.196 Electron/34.2.0 Safari/537.36" version="26.0.16">
  <diagram name="第 1 页" id="KZrwpAOeTvSQi1EUeY_K">
    <mxGraphModel dx="1725" dy="935" grid="1" gridSize="10" guides="1" tooltips="1" connect="1" arrows="1" fold="1" page="1" pageScale="1" pageWidth="1169" pageHeight="1654" math="0" shadow="0">
      <root>
        <mxCell id="0" />
        <mxCell id="1" parent="0" />
        <mxCell id="oYNk7x4C4o8RydmfEQbh-26" value="" style="edgeStyle=orthogonalEdgeStyle;rounded=0;orthogonalLoop=1;jettySize=auto;html=1;" edge="1" parent="1" source="oYNk7x4C4o8RydmfEQbh-1" target="oYNk7x4C4o8RydmfEQbh-25">
          <mxGeometry relative="1" as="geometry" />
        </mxCell>
        <mxCell id="oYNk7x4C4o8RydmfEQbh-1" value="pdf2pic" style="whiteSpace=wrap;html=1;" vertex="1" parent="1">
          <mxGeometry x="40" y="40" width="120" height="60" as="geometry" />
        </mxCell>
        <mxCell id="oYNk7x4C4o8RydmfEQbh-30" value="" style="edgeStyle=orthogonalEdgeStyle;rounded=0;orthogonalLoop=1;jettySize=auto;html=1;" edge="1" parent="1" source="oYNk7x4C4o8RydmfEQbh-3" target="oYNk7x4C4o8RydmfEQbh-29">
          <mxGeometry relative="1" as="geometry" />
        </mxCell>
        <mxCell id="oYNk7x4C4o8RydmfEQbh-3" value="paddle_structure" style="whiteSpace=wrap;html=1;" vertex="1" parent="1">
          <mxGeometry x="40" y="270" width="120" height="60" as="geometry" />
        </mxCell>
        <mxCell id="oYNk7x4C4o8RydmfEQbh-33" style="edgeStyle=orthogonalEdgeStyle;rounded=0;orthogonalLoop=1;jettySize=auto;html=1;entryX=0;entryY=0.5;entryDx=0;entryDy=0;" edge="1" parent="1" source="oYNk7x4C4o8RydmfEQbh-6" target="oYNk7x4C4o8RydmfEQbh-8">
          <mxGeometry relative="1" as="geometry" />
        </mxCell>
        <mxCell id="oYNk7x4C4o8RydmfEQbh-34" style="edgeStyle=orthogonalEdgeStyle;rounded=0;orthogonalLoop=1;jettySize=auto;html=1;entryX=0;entryY=0.5;entryDx=0;entryDy=0;" edge="1" parent="1" source="oYNk7x4C4o8RydmfEQbh-6" target="oYNk7x4C4o8RydmfEQbh-9">
          <mxGeometry relative="1" as="geometry" />
        </mxCell>
        <mxCell id="oYNk7x4C4o8RydmfEQbh-35" style="edgeStyle=orthogonalEdgeStyle;rounded=0;orthogonalLoop=1;jettySize=auto;html=1;entryX=0;entryY=0.5;entryDx=0;entryDy=0;" edge="1" parent="1" source="oYNk7x4C4o8RydmfEQbh-6" target="oYNk7x4C4o8RydmfEQbh-10">
          <mxGeometry relative="1" as="geometry" />
        </mxCell>
        <mxCell id="oYNk7x4C4o8RydmfEQbh-36" style="edgeStyle=orthogonalEdgeStyle;rounded=0;orthogonalLoop=1;jettySize=auto;html=1;entryX=0;entryY=0.5;entryDx=0;entryDy=0;" edge="1" parent="1" source="oYNk7x4C4o8RydmfEQbh-6" target="oYNk7x4C4o8RydmfEQbh-11">
          <mxGeometry relative="1" as="geometry" />
        </mxCell>
        <mxCell id="oYNk7x4C4o8RydmfEQbh-6" value="png_cut" style="whiteSpace=wrap;html=1;" vertex="1" parent="1">
          <mxGeometry x="270" y="410" width="120" height="60" as="geometry" />
        </mxCell>
        <mxCell id="oYNk7x4C4o8RydmfEQbh-21" value="" style="edgeStyle=orthogonalEdgeStyle;rounded=0;orthogonalLoop=1;jettySize=auto;html=1;" edge="1" parent="1" source="oYNk7x4C4o8RydmfEQbh-8" target="oYNk7x4C4o8RydmfEQbh-16">
          <mxGeometry relative="1" as="geometry" />
        </mxCell>
        <mxCell id="oYNk7x4C4o8RydmfEQbh-8" value="equation" style="whiteSpace=wrap;html=1;" vertex="1" parent="1">
          <mxGeometry x="670" y="340" width="120" height="60" as="geometry" />
        </mxCell>
        <mxCell id="oYNk7x4C4o8RydmfEQbh-22" value="" style="edgeStyle=orthogonalEdgeStyle;rounded=0;orthogonalLoop=1;jettySize=auto;html=1;" edge="1" parent="1" source="oYNk7x4C4o8RydmfEQbh-9" target="oYNk7x4C4o8RydmfEQbh-17">
          <mxGeometry relative="1" as="geometry" />
        </mxCell>
        <mxCell id="oYNk7x4C4o8RydmfEQbh-9" value="&amp;nbsp;table" style="whiteSpace=wrap;html=1;" vertex="1" parent="1">
          <mxGeometry x="670" y="460" width="120" height="60" as="geometry" />
        </mxCell>
        <mxCell id="oYNk7x4C4o8RydmfEQbh-23" value="" style="edgeStyle=orthogonalEdgeStyle;rounded=0;orthogonalLoop=1;jettySize=auto;html=1;" edge="1" parent="1" source="oYNk7x4C4o8RydmfEQbh-10" target="oYNk7x4C4o8RydmfEQbh-19">
          <mxGeometry relative="1" as="geometry" />
        </mxCell>
        <mxCell id="oYNk7x4C4o8RydmfEQbh-10" value="&amp;nbsp;picture" style="whiteSpace=wrap;html=1;" vertex="1" parent="1">
          <mxGeometry x="670" y="600" width="120" height="60" as="geometry" />
        </mxCell>
        <mxCell id="oYNk7x4C4o8RydmfEQbh-24" value="" style="edgeStyle=orthogonalEdgeStyle;rounded=0;orthogonalLoop=1;jettySize=auto;html=1;" edge="1" parent="1" source="oYNk7x4C4o8RydmfEQbh-11" target="oYNk7x4C4o8RydmfEQbh-20">
          <mxGeometry relative="1" as="geometry" />
        </mxCell>
        <mxCell id="oYNk7x4C4o8RydmfEQbh-11" value="&amp;nbsp;other" style="whiteSpace=wrap;html=1;" vertex="1" parent="1">
          <mxGeometry x="670" y="730" width="120" height="60" as="geometry" />
        </mxCell>
        <mxCell id="oYNk7x4C4o8RydmfEQbh-16" value="latex-ocr" style="whiteSpace=wrap;html=1;" vertex="1" parent="1">
          <mxGeometry x="870" y="340" width="120" height="60" as="geometry" />
        </mxCell>
        <mxCell id="oYNk7x4C4o8RydmfEQbh-17" value="paddle" style="whiteSpace=wrap;html=1;" vertex="1" parent="1">
          <mxGeometry x="870" y="460" width="120" height="60" as="geometry" />
        </mxCell>
        <mxCell id="oYNk7x4C4o8RydmfEQbh-19" value="qwen-vl" style="whiteSpace=wrap;html=1;" vertex="1" parent="1">
          <mxGeometry x="870" y="600" width="120" height="60" as="geometry" />
        </mxCell>
        <mxCell id="oYNk7x4C4o8RydmfEQbh-20" value="tesseract" style="whiteSpace=wrap;html=1;" vertex="1" parent="1">
          <mxGeometry x="870" y="730" width="120" height="60" as="geometry" />
        </mxCell>
        <mxCell id="oYNk7x4C4o8RydmfEQbh-28" value="" style="edgeStyle=orthogonalEdgeStyle;rounded=0;orthogonalLoop=1;jettySize=auto;html=1;" edge="1" parent="1" source="oYNk7x4C4o8RydmfEQbh-25" target="oYNk7x4C4o8RydmfEQbh-3">
          <mxGeometry relative="1" as="geometry" />
        </mxCell>
        <mxCell id="oYNk7x4C4o8RydmfEQbh-32" style="edgeStyle=orthogonalEdgeStyle;rounded=0;orthogonalLoop=1;jettySize=auto;html=1;entryX=0.5;entryY=0;entryDx=0;entryDy=0;" edge="1" parent="1" source="oYNk7x4C4o8RydmfEQbh-25" target="oYNk7x4C4o8RydmfEQbh-6">
          <mxGeometry relative="1" as="geometry" />
        </mxCell>
        <mxCell id="oYNk7x4C4o8RydmfEQbh-25" value="pdf2pic_output" style="shape=parallelogram;perimeter=parallelogramPerimeter;whiteSpace=wrap;html=1;fixedSize=1;" vertex="1" parent="1">
          <mxGeometry x="40" y="150" width="120" height="60" as="geometry" />
        </mxCell>
        <mxCell id="oYNk7x4C4o8RydmfEQbh-31" value="" style="edgeStyle=orthogonalEdgeStyle;rounded=0;orthogonalLoop=1;jettySize=auto;html=1;" edge="1" parent="1" source="oYNk7x4C4o8RydmfEQbh-29" target="oYNk7x4C4o8RydmfEQbh-6">
          <mxGeometry relative="1" as="geometry" />
        </mxCell>
        <mxCell id="oYNk7x4C4o8RydmfEQbh-29" value="structure_info" style="shape=parallelogram;perimeter=parallelogramPerimeter;whiteSpace=wrap;html=1;fixedSize=1;" vertex="1" parent="1">
          <mxGeometry x="40" y="410" width="120" height="60" as="geometry" />
        </mxCell>
      </root>
    </mxGraphModel>
  </diagram>
</mxfile>
